<svg id="visual" viewBox="0 0 900 600" width="900" height="600" xmlns="http://www.w3.org/2000/svg" xmlns:xlink="http://www.w3.org/1999/xlink" version="1.1"><path d="M0 103L82 145L164 247L245 139L327 187L409 139L491 103L573 79L655 271L736 175L818 193L900 103L900 0L818 0L736 0L655 0L573 0L491 0L409 0L327 0L245 0L164 0L82 0L0 0Z" fill="#00cc8e"></path><path d="M0 211L82 259L164 313L245 265L327 253L409 235L491 181L573 229L655 331L736 271L818 295L900 253L900 101L818 191L736 173L655 269L573 77L491 101L409 137L327 185L245 137L164 245L82 143L0 101Z" fill="#00b98a"></path><path d="M0 295L82 307L164 391L245 337L327 349L409 331L491 247L573 283L655 397L736 361L818 355L900 355L900 251L818 293L736 269L655 329L573 227L491 179L409 233L327 251L245 263L164 311L82 257L0 209Z" fill="#00a784"></path><path d="M0 397L82 397L164 433L245 451L327 403L409 427L491 313L573 409L655 475L736 469L818 475L900 421L900 353L818 353L736 359L655 395L573 281L491 245L409 329L327 347L245 335L164 389L82 305L0 293Z" fill="#00957c"></path><path d="M0 601L82 601L164 601L245 601L327 601L409 601L491 601L573 601L655 601L736 601L818 601L900 601L900 419L818 473L736 467L655 473L573 407L491 311L409 425L327 401L245 449L164 431L82 395L0 395Z" fill="#038373"></path></svg>